<svg width="48" height="48" viewBox="0 0 48 48" fill="none" xmlns="http://www.w3.org/2000/svg">
  <rect width="48" height="48" rx="8" fill="#2563EB"/>
  <path d="M24 12C17.3726 12 12 17.3726 12 24C12 30.6274 17.3726 36 24 36C30.6274 36 36 30.6274 36 24C36 17.3726 30.6274 12 24 12ZM16 24C16 20.6863 18.6863 18 22 18C25.3137 18 28 20.6863 28 24C28 27.3137 25.3137 30 22 30C18.6863 30 16 27.3137 16 24ZM32 24C32 26.2091 30.2091 28 28 28C25.7909 28 24 26.2091 24 24C24 21.7909 25.7909 20 28 20C30.2091 20 32 21.7909 32 24Z" fill="white"/>
  <path d="M34 20C35.1046 20 36 19.1046 36 18C36 16.8954 35.1046 16 34 16C32.8954 16 32 16.8954 32 18C32 19.1046 32.8954 20 34 20Z" fill="white"/>
</svg>